# xmcd
#
# Track frame offsets: 
#        150
#        17695
#        37127
#        50097
#        64492
#        81597
#        96992
#        114010
#        133537
#        155755
#
# Disc length: 2317 seconds
#
# Revision: 2
# Processed by: cddbd v1.5.2PL0 Copyright (c) Steve Scherf et al.
# Submitted via: ExactAudioCopy v1.0b4
#
DISCID=8d090b0a
DTITLE=マイペース - とうきょう
DYEAR=1975
DGENRE=フォーク
TTITLE0=東京
TTITLE1=雪路つむじ風
TTITLE2=朝はもうすぐ
TTITLE3=君が好き
TTITLE4=桜道’74
TTITLE5=南へ
TTITLE6=あなたに
TTITLE7=K町露路裏想い出通り
TTITLE8=さよなら
TTITLE9=朝の郵便受
EXTD=
EXTT0=
EXTT1=
EXTT2=
EXTT3=
EXTT4=
EXTT5=
EXTT6=
EXTT7=
EXTT8=
EXTT9=
PLAYORDER=
